<?xml version="1.0" encoding="iso-8859-1"?>
<!-- Generator: Adobe Illustrator 19.0.0, SVG Export Plug-In . SVG Version: 6.00 Build 0)  -->
<svg version="1.1" id="Layer_1" xmlns="http://www.w3.org/2000/svg" xmlns:xlink="http://www.w3.org/1999/xlink" x="0px" y="0px"
	 viewBox="0 0 512 512" style="enable-background:new 0 0 512 512;" xml:space="preserve">
<g>
	
		<rect x="74.076" y="61.932" transform="matrix(-0.7071 -0.7071 0.7071 -0.7071 90.7749 219.1343)" style="fill:#3A3839;" width="33.391" height="57.671"/>
	
		<rect x="74.07" y="392.408" transform="matrix(-0.7071 -0.7071 0.7071 -0.7071 -142.9179 783.2877)" style="fill:#3A3839;" width="33.391" height="57.671"/>
	<rect x="79.582" y="447.165" style="fill:#3A3839;" width="267.586" height="33.391"/>
	<rect x="361.916" y="164.831" style="fill:#3A3839;" width="33.391" height="267.586"/>
	<rect x="79.582" y="116.692" style="fill:#3A3839;" width="267.586" height="33.391"/>
	<rect x="31.443" y="164.831" style="fill:#3A3839;" width="33.391" height="267.586"/>
	<rect x="116.691" y="79.583" style="fill:#3A3839;" width="33.391" height="267.586"/>
	<rect x="164.83" y="361.917" style="fill:#3A3839;" width="267.586" height="33.391"/>
	<rect x="447.164" y="79.583" style="fill:#3A3839;" width="33.391" height="267.586"/>
	<rect x="164.83" y="31.444" style="fill:#3A3839;" width="267.586" height="33.391"/>
	
		<rect x="404.536" y="61.926" transform="matrix(-0.7071 -0.7071 0.7071 -0.7071 654.9088 452.795)" style="fill:#3A3839;" width="33.391" height="57.671"/>
	
		<rect x="404.541" y="392.394" transform="matrix(-0.7071 -0.7071 0.7071 -0.7071 421.2404 1016.943)" style="fill:#3A3839;" width="33.391" height="57.671"/>
</g>
<path style="fill:#9ED04D;" d="M133.388,96.28c-26.545,0-48.14-21.595-48.14-48.139c0-26.544,21.596-48.14,48.14-48.14
	s48.14,21.595,48.14,48.14C181.528,74.685,159.933,96.28,133.388,96.28z"/>
<path style="fill:#86B143;" d="M133.388,96.28V0.001c26.545,0,48.14,21.595,48.14,48.14C181.528,74.685,159.933,96.28,133.388,96.28
	z"/>
<path style="fill:#9ED04D;" d="M48.14,181.529C21.595,181.529,0,159.932,0,133.39c0-26.545,21.595-48.14,48.14-48.14
	s48.14,21.595,48.14,48.14C96.28,159.932,74.685,181.529,48.14,181.529z"/>
<path style="fill:#86B143;" d="M48.14,181.529V85.249c26.545,0,48.14,21.595,48.14,48.14
	C96.28,159.932,74.685,181.529,48.14,181.529z"/>
<path style="fill:#9ED04D;" d="M48.14,511.999C21.595,511.999,0,490.404,0,463.86s21.595-48.139,48.14-48.139
	s48.14,21.595,48.14,48.14C96.28,490.404,74.685,511.999,48.14,511.999z"/>
<path style="fill:#86B143;" d="M48.14,511.999v-96.278c26.545,0,48.14,21.595,48.14,48.14
	C96.28,490.404,74.685,511.999,48.14,511.999z"/>
<path style="fill:#9ED04D;" d="M378.612,511.999c-26.545,0-48.14-21.595-48.14-48.139c0-26.545,21.595-48.14,48.14-48.14
	c26.545,0,48.14,21.595,48.14,48.14C426.752,490.404,405.156,511.999,378.612,511.999z"/>
<path style="fill:#86B143;" d="M378.612,511.999v-96.278c26.545,0,48.14,21.595,48.14,48.14
	C426.752,490.404,405.156,511.999,378.612,511.999z"/>
<path style="fill:#9ED04D;" d="M463.86,96.28c-26.545,0-48.14-21.595-48.14-48.139s21.595-48.14,48.14-48.14
	c26.545,0,48.14,21.595,48.14,48.14C512,74.685,490.405,96.28,463.86,96.28z"/>
<path style="fill:#86B143;" d="M463.86,96.28V0.001c26.545,0,48.14,21.595,48.14,48.14C512,74.685,490.405,96.28,463.86,96.28z"/>
<path style="fill:#9ED04D;" d="M378.612,181.529c-26.545,0-48.14-21.595-48.14-48.139c0-26.545,21.595-48.14,48.14-48.14
	c26.545,0,48.14,21.595,48.14,48.14C426.752,159.932,405.156,181.529,378.612,181.529z"/>
<path style="fill:#86B143;" d="M378.612,181.529V85.249c26.545,0,48.14,21.595,48.14,48.14
	C426.752,159.932,405.156,181.529,378.612,181.529z"/>
<path style="fill:#9ED04D;" d="M133.388,426.752c-26.545,0-48.14-21.595-48.14-48.139c0-26.545,21.595-48.14,48.14-48.14
	s48.14,21.595,48.14,48.14C181.528,405.156,159.933,426.752,133.388,426.752z"/>
<path style="fill:#86B143;" d="M133.388,426.752v-96.279c26.545,0,48.14,21.595,48.14,48.14
	C181.528,405.156,159.933,426.752,133.388,426.752z"/>
<path style="fill:#9ED04D;" d="M463.86,426.752c-26.545,0-48.14-21.595-48.14-48.139c0-26.545,21.595-48.14,48.14-48.14
	c26.545,0,48.14,21.595,48.14,48.14C512,405.156,490.405,426.752,463.86,426.752z"/>
<path style="fill:#86B143;" d="M463.86,426.752v-96.279c26.545,0,48.14,21.595,48.14,48.14
	C512,405.156,490.405,426.752,463.86,426.752z"/>
<g>
</g>
<g>
</g>
<g>
</g>
<g>
</g>
<g>
</g>
<g>
</g>
<g>
</g>
<g>
</g>
<g>
</g>
<g>
</g>
<g>
</g>
<g>
</g>
<g>
</g>
<g>
</g>
<g>
</g>
</svg>
