<?xml version="1.0" encoding="iso-8859-1"?>
<!-- Generator: Adobe Illustrator 19.0.0, SVG Export Plug-In . SVG Version: 6.00 Build 0)  -->
<svg version="1.1" id="Layer_1" xmlns="http://www.w3.org/2000/svg" xmlns:xlink="http://www.w3.org/1999/xlink" x="0px" y="0px"
	 viewBox="0 0 512 512" style="enable-background:new 0 0 512 512;" xml:space="preserve">
<path style="fill:#EDEEF0;" d="M169.066,16.168v159.234L80.141,413.235c-8.396,22.452-5.25,47.616,8.412,67.311
	C102.217,500.242,124.685,512,148.656,512h214.688c23.984,0,46.458-11.768,60.12-31.48c13.661-19.713,16.791-44.888,8.372-67.345
	l-89.147-237.778V16.168H169.066z"/>
<path style="fill:#DCDEE2;" d="M431.836,413.174l-89.147-237.778V16.168h-86.522V512h107.176c23.984,0,46.458-11.768,60.12-31.48
	C437.125,460.807,440.255,435.631,431.836,413.174z"/>
<path style="fill:#9ED04D;" d="M351.634,291.368H160.229l-49.8,133.192c-4.754,12.713-3.043,26.401,4.694,37.554
	s19.958,17.549,33.532,17.549h214.688c13.58,0,25.806-6.401,33.542-17.564c7.737-11.162,9.439-24.858,4.671-37.574L351.634,291.368z
	"/>
<path style="fill:#86B143;" d="M401.557,424.526l-49.923-133.158h-95.467v188.295h107.176c13.58,0,25.806-6.401,33.542-17.564
	C404.622,450.937,406.324,437.242,401.557,424.526z"/>
<rect x="169.65" y="43.72" style="fill:#D8D9DD;" width="173.045" height="35.137"/>
<rect x="256.167" y="43.72" style="fill:#B7B9C0;" width="86.517" height="35.137"/>
<path style="fill:#EDEEF0;" d="M342.345,53.895H169.408c-14.883,0-26.948-12.064-26.948-26.948l0,0
	C142.462,12.064,154.526,0,169.408,0h172.937c14.883,0,26.948,12.064,26.948,26.948l0,0
	C369.293,41.83,357.229,53.895,342.345,53.895z"/>
<path style="fill:#DCDEE2;" d="M369.293,26.948L369.293,26.948C369.293,12.064,357.229,0,342.345,0h-86.178v53.895h86.178
	C357.229,53.895,369.293,41.83,369.293,26.948z"/>
<g>
	<circle style="fill:#FFFFFF;" cx="223.688" cy="355.706" r="26.489"/>
	<circle style="fill:#FFFFFF;" cx="176.684" cy="434.354" r="18.731"/>
	<circle style="fill:#FFFFFF;" cx="331.331" cy="404.246" r="18.731"/>
</g>
<circle style="fill:#EDEEF0;" cx="331.331" cy="404.246" r="18.731"/>
<g>
</g>
<g>
</g>
<g>
</g>
<g>
</g>
<g>
</g>
<g>
</g>
<g>
</g>
<g>
</g>
<g>
</g>
<g>
</g>
<g>
</g>
<g>
</g>
<g>
</g>
<g>
</g>
<g>
</g>
</svg>
