<?xml version="1.0" encoding="iso-8859-1"?>
<!-- Generator: Adobe Illustrator 19.0.0, SVG Export Plug-In . SVG Version: 6.00 Build 0)  -->
<svg version="1.1" id="Layer_1" xmlns="http://www.w3.org/2000/svg" xmlns:xlink="http://www.w3.org/1999/xlink" x="0px" y="0px"
	 viewBox="0 0 512 512" style="enable-background:new 0 0 512 512;" xml:space="preserve">
<path style="fill:#6D6E71;" d="M269.355,335.239l123.576-180.71c14.69-21.478,47.213,0.73,32.511,22.233l-123.576,180.71
	C287.376,378.657,254.551,356.89,269.355,335.239z"/>
<g>
	<path style="fill:#808285;" d="M209.376,357.472L86.045,177.119c-14.714-21.52,17.829-43.701,32.511-22.233l123.332,180.353
		C256.575,356.72,224.08,378.973,209.376,357.472z"/>
	<path style="fill:#808285;" d="M386.044,141.483H125.956c-26.021,0-26.049-39.385,0-39.385h260.087
		C412.065,102.098,412.092,141.483,386.044,141.483z"/>
</g>
<g>
	<path style="fill:#FFDB77;" d="M38.456,185.931C14.377,173.055,0,149.077,0,121.79c0-40.147,32.67-72.81,72.825-72.81
		s72.825,32.663,72.825,72.81c0,24.374-12.115,47.023-32.407,60.584C91.011,197.221,62.363,198.712,38.456,185.931z"/>
	<path style="fill:#FFDB77;" d="M255.621,463.02c-40.155,0-72.825-32.663-72.825-72.81c0-27.074,14.893-51.732,38.866-64.351
		c24.06-12.662,52.833-11.028,75.096,4.263c19.833,13.58,31.688,36.047,31.688,60.088
		C328.447,430.357,295.777,463.02,255.621,463.02z"/>
</g>
<path style="fill:#6D6E71;" d="M386.044,102.098H256v39.385h130.044C412.092,141.483,412.065,102.098,386.044,102.098z"/>
<g>
	<path style="fill:#FF905E;" d="M398.037,181.878c-19.83-13.564-31.686-36.034-31.686-60.088c0-40.147,32.67-72.81,72.825-72.81
		S512,81.643,512,121.79c0,27.076-14.897,51.737-38.875,64.357C449.091,198.798,420.32,197.18,398.037,181.878z"/>
	<path style="fill:#FF905E;" d="M328.447,390.21c0-24.04-11.853-46.508-31.688-60.088c-12.241-8.406-26.448-12.675-40.759-12.72
		V463.01C295.982,462.805,328.447,430.231,328.447,390.21z"/>
</g>
<g>
</g>
<g>
</g>
<g>
</g>
<g>
</g>
<g>
</g>
<g>
</g>
<g>
</g>
<g>
</g>
<g>
</g>
<g>
</g>
<g>
</g>
<g>
</g>
<g>
</g>
<g>
</g>
<g>
</g>
</svg>
