<?xml version="1.0" encoding="iso-8859-1"?>
<!-- Generator: Adobe Illustrator 19.0.0, SVG Export Plug-In . SVG Version: 6.00 Build 0)  -->
<svg version="1.1" id="Layer_1" xmlns="http://www.w3.org/2000/svg" xmlns:xlink="http://www.w3.org/1999/xlink" x="0px" y="0px"
	 viewBox="0 0 512 512" style="enable-background:new 0 0 512 512;" xml:space="preserve">
<g>
	<rect x="239.305" y="84.584" style="fill:#444242;" width="33.391" height="123.893"/>
	<rect x="239.305" y="303.516" style="fill:#444242;" width="33.391" height="123.893"/>
</g>
<g>
	<rect x="256.001" y="84.584" style="fill:#3A3839;" width="16.696" height="123.893"/>
	<rect x="256.001" y="303.516" style="fill:#3A3839;" width="16.696" height="123.893"/>
</g>
<rect x="144.507" y="248.788" transform="matrix(-0.5 -0.866 0.866 -0.5 -27.2958 605.7072)" style="fill:#444242;" width="33.391" height="123.89"/>
<rect x="288.844" y="294.041" transform="matrix(-0.866 -0.5 0.5 -0.866 499.2076 755.2387)" style="fill:#3A3839;" width="123.89" height="33.391"/>
<path style="fill:#F9D026;" d="M256.001,320.217c-35.409,0-64.217-28.808-64.217-64.217s28.808-64.217,64.217-64.217
	s64.217,28.808,64.217,64.217S291.41,320.217,256.001,320.217z"/>
<g>
	<path style="fill:#61A2EF;" d="M256.001,101.279c-27.923,0-50.64-22.717-50.64-50.639c0-27.923,22.717-50.64,50.64-50.64
		c27.923,0,50.64,22.717,50.64,50.64C306.641,78.562,283.924,101.279,256.001,101.279z"/>
	<path style="fill:#61A2EF;" d="M256.001,512c-27.923,0-50.64-22.717-50.64-50.64c0-27.922,22.717-50.639,50.64-50.639
		c27.923,0,50.64,22.717,50.64,50.639C306.641,489.283,283.924,512,256.001,512z"/>
	<path style="fill:#61A2EF;" d="M78.237,409.342c-4.399,0-8.826-0.579-13.19-1.747c-13.065-3.5-23.985-11.881-30.749-23.594
		s-8.559-25.361-5.059-38.426c3.502-13.066,11.88-23.986,23.594-30.749c24.182-13.96,55.215-5.645,69.175,18.535
		c6.764,11.714,8.559,25.361,5.059,38.427c-3.502,13.065-11.881,23.985-23.594,30.748C95.671,407.04,87.011,409.342,78.237,409.342z
		"/>
</g>
<path style="fill:#528ACF;" d="M433.765,409.342c-8.775,0-17.434-2.301-25.237-6.806c-11.714-6.763-20.094-17.683-23.594-30.748
	c-3.5-13.066-1.704-26.713,5.059-38.427c13.962-24.181,44.993-32.495,69.175-18.534c11.714,6.763,20.093,17.683,23.594,30.748
	c3.501,13.065,1.704,26.712-5.059,38.426c-6.763,11.714-17.683,20.094-30.748,23.594
	C442.592,408.763,438.164,409.342,433.765,409.342z"/>
<path style="fill:#E7C224;" d="M320.218,256c0-35.409-28.808-64.217-64.217-64.217v128.434
	C291.41,320.217,320.218,291.409,320.218,256z"/>
<g>
	<path style="fill:#528ACF;" d="M306.641,50.64c0-27.923-22.717-50.64-50.64-50.64v101.279
		C283.924,101.279,306.641,78.562,306.641,50.64z"/>
	<path style="fill:#528ACF;" d="M256.001,410.721V512c27.923,0,50.64-22.717,50.64-50.64
		C306.641,433.438,283.924,410.721,256.001,410.721z"/>
</g>
<g>
</g>
<g>
</g>
<g>
</g>
<g>
</g>
<g>
</g>
<g>
</g>
<g>
</g>
<g>
</g>
<g>
</g>
<g>
</g>
<g>
</g>
<g>
</g>
<g>
</g>
<g>
</g>
<g>
</g>
</svg>
