<?xml version="1.0" encoding="iso-8859-1"?>
<!-- Generator: Adobe Illustrator 19.0.0, SVG Export Plug-In . SVG Version: 6.00 Build 0)  -->
<svg version="1.1" id="Layer_1" xmlns="http://www.w3.org/2000/svg" xmlns:xlink="http://www.w3.org/1999/xlink" x="0px" y="0px"
	 viewBox="0 0 481.161 481.161" style="enable-background:new 0 0 481.161 481.161;" xml:space="preserve">
<g id="XMLID_1568_">
	<g id="XMLID_561_">
		<circle style="fill:#5EBAE7;" cx="430.562" cy="48.832" r="41.338"/>
	</g>
	<g id="XMLID_560_">
		<circle style="fill:#9ED6F1;" cx="420.228" cy="38.497" r="31.004"/>
	</g>
	<g id="XMLID_567_">
		<circle style="fill:#5EBAE7;" cx="52.003" cy="154.057" r="41.338"/>
	</g>
	<g id="XMLID_566_">
		<circle style="fill:#9ED6F1;" cx="41.668" cy="143.722" r="31.004"/>
	</g>
	<g id="XMLID_565_">
		<path style="fill:#1D1D1B;" d="M52.535,205.329c-13.373,0-25.944-5.208-35.4-14.664c-19.519-19.52-19.519-51.279,0.001-70.799
			c9.456-9.456,22.027-14.664,35.4-14.664s25.944,5.208,35.4,14.664c9.456,9.455,14.663,22.027,14.663,35.399
			s-5.208,25.944-14.664,35.399l0,0l0,0C78.479,200.121,65.908,205.329,52.535,205.329z M52.535,120.234
			c-9.357,0-18.154,3.645-24.771,10.261c-13.659,13.658-13.659,35.883,0,49.541c6.617,6.616,15.414,10.261,24.771,10.261
			s18.154-3.645,24.771-10.261l0,0c6.616-6.616,10.26-15.413,10.26-24.77c0-9.357-3.644-18.154-10.26-24.771
			C70.689,123.879,61.892,120.234,52.535,120.234z"/>
	</g>
	<g id="XMLID_569_">
		<circle style="fill:#5EBAE7;" cx="330.097" cy="429.734" r="41.338"/>
	</g>
	<g id="XMLID_568_">
		<circle style="fill:#9ED6F1;" cx="319.763" cy="419.399" r="31.004"/>
	</g>
	<g id="XMLID_489_">
		<path style="fill:#1D1D1B;" d="M330.629,480.982c-12.82,0-25.64-4.88-35.4-14.64c-19.52-19.521-19.52-51.281,0-70.8
			c9.456-9.456,22.027-14.664,35.4-14.664c13.372,0,25.944,5.208,35.4,14.664c9.456,9.455,14.663,22.027,14.663,35.399
			c0,13.372-5.207,25.944-14.663,35.4l0,0C356.269,476.102,343.45,480.982,330.629,480.982z M330.629,395.911
			c-9.357,0-18.154,3.645-24.771,10.261c-13.659,13.658-13.659,35.883,0,49.542c13.658,13.657,35.883,13.659,49.542,0
			c6.616-6.617,10.26-15.414,10.26-24.771s-3.644-18.154-10.26-24.771S339.986,395.911,330.629,395.911z"/>
	</g>
	<path style="fill:#1D1D1B;" d="M464.001,14.64c-19.52-19.52-51.279-19.519-70.8,0c-9.455,9.456-14.663,22.028-14.663,35.4
		c0,1.567,0.078,3.121,0.219,4.662l-282.779,75.77c-2.156-3.769-4.829-7.319-8.043-10.533c-19.519-19.519-51.279-19.521-70.8,0
		c-19.518,19.52-19.518,51.28,0.001,70.8c9.76,9.76,22.58,14.64,35.4,14.64c9.875,0,19.743-2.908,28.219-8.698l206.212,206.213
		c-5.659,8.253-8.712,18.003-8.712,28.227c0,13.372,5.207,25.944,14.663,35.4c9.76,9.76,22.58,14.64,35.4,14.64
		s25.64-4.88,35.4-14.64l0,0c9.456-9.456,14.663-22.028,14.663-35.4s-5.208-25.944-14.663-35.399
		c-4.704-4.704-10.181-8.355-16.143-10.839L423.94,99.885c1.541,0.141,3.096,0.219,4.662,0.219c13.372,0,25.944-5.208,35.399-14.664
		c9.456-9.455,14.664-22.027,14.664-35.399C478.664,36.669,473.457,24.096,464.001,14.64z M27.765,180.11
		c-13.658-13.659-13.658-35.883,0-49.542c6.83-6.83,15.799-10.243,24.771-10.243c8.97,0,17.942,3.415,24.771,10.243
		c13.659,13.659,13.659,35.883,0,49.542C63.647,193.769,41.422,193.767,27.765,180.11z M363.348,431.121
		c0,9.358-3.644,18.154-10.26,24.772c-13.659,13.657-35.883,13.658-49.541,0c-6.617-6.617-10.261-15.414-10.261-24.772
		c0-9.357,3.644-18.154,10.261-24.771c6.616-6.616,15.413-10.261,24.771-10.261c9.357,0,18.154,3.645,24.771,10.261
		C359.704,412.966,363.348,421.763,363.348,431.121z M332.979,381.277c-1.541-0.141-3.095-0.219-4.661-0.219
		c-11.435,0-22.278,3.819-31.094,10.836L91.762,186.431c9.562-12.046,12.772-27.504,9.638-41.849l280.963-75.283
		c2.483,5.962,6.134,11.438,10.838,16.142s10.181,8.355,16.142,10.839L332.979,381.277z M453.372,74.811L453.372,74.811
		c-6.617,6.616-15.413,10.261-24.77,10.261s-18.154-3.645-24.771-10.261c-6.616-6.616-10.26-15.413-10.26-24.771
		s3.644-18.154,10.26-24.772c6.83-6.83,15.799-10.243,24.771-10.243c8.969,0,17.942,3.415,24.77,10.243
		c6.617,6.617,10.261,15.414,10.261,24.772C463.632,59.398,459.988,68.195,453.372,74.811z"/>
</g>
<g>
</g>
<g>
</g>
<g>
</g>
<g>
</g>
<g>
</g>
<g>
</g>
<g>
</g>
<g>
</g>
<g>
</g>
<g>
</g>
<g>
</g>
<g>
</g>
<g>
</g>
<g>
</g>
<g>
</g>
</svg>
