<?xml version="1.0" encoding="iso-8859-1"?>
<!-- Generator: Adobe Illustrator 19.0.0, SVG Export Plug-In . SVG Version: 6.00 Build 0)  -->
<svg version="1.1" id="Layer_1" xmlns="http://www.w3.org/2000/svg" xmlns:xlink="http://www.w3.org/1999/xlink" x="0px" y="0px"
	 viewBox="0 0 495.372 495.372" style="enable-background:new 0 0 495.372 495.372;" xml:space="preserve">
<g id="XMLID_957_">
	<g id="XMLID_959_">
		<circle style="fill:#3AAA35;" cx="432.202" cy="417.469" r="47.381"/>
	</g>
	<g id="XMLID_958_">
		<circle style="fill:#89CC86;" cx="420.357" cy="405.623" r="35.536"/>
	</g>
	<g id="XMLID_941_">
		<circle style="fill:#3AAA35;" cx="68.946" cy="77.903" r="39.484"/>
	</g>
	<g id="XMLID_939_">
		<circle style="fill:#89CC86;" cx="59.075" cy="68.032" r="29.613"/>
	</g>
	<path style="fill:#1D1D1B;" d="M458.898,275.878c-33.837-45.228-87.194-91.327-150.241-129.805
		c-63.526-38.771-131.166-65.774-186.779-74.696c-3.895-25.622-26.071-45.318-52.764-45.318c-29.429,0-53.372,23.942-53.372,53.371
		c0,3.291,0.315,6.508,0.888,9.636c-3.337,3.21-6.221,6.781-8.583,10.651c-16.983,27.827-6.887,69.148,28.428,116.352
		c33.837,45.228,87.194,91.326,150.241,129.804c66.315,40.474,136.221,67.8,193.114,75.639c2.794,26.821,25.532,47.801,53.08,47.801
		c29.429,0,53.372-23.942,53.372-53.371c0-6.271-1.096-12.29-3.092-17.884c1.514-1.857,2.898-3.802,4.135-5.829
		C504.309,364.401,494.213,323.081,458.898,275.878z M69.114,41.852c20.72,0,37.578,16.857,37.578,37.578
		s-16.857,37.578-37.578,37.578c-20.72,0-37.578-16.857-37.578-37.578S48.394,41.852,69.114,41.852z M432.911,453.52
		c-20.72,0-37.578-16.857-37.578-37.578s16.857-37.578,37.578-37.578c20.72,0,37.578,16.857,37.578,37.578
		S453.631,453.52,432.911,453.52z M432.911,362.57c-25.912,0-47.561,18.564-52.368,43.089
		c-54.527-7.797-121.62-34.221-185.599-73.268c-61.372-37.456-113.16-82.128-145.822-125.785
		c-30.733-41.077-40.79-77.038-27.593-98.661c0.41-0.672,0.856-1.326,1.311-1.973c9.222,16.015,26.503,26.828,46.273,26.828
		c26.725,0,48.921-19.745,52.776-45.412c53.158,8.998,117.651,35.004,178.54,72.165c61.372,37.457,113.16,82.128,145.822,125.785
		c30.115,40.253,40.362,75.582,28.345,97.331C464.808,370.431,449.764,362.57,432.911,362.57z"/>
</g>
<g>
</g>
<g>
</g>
<g>
</g>
<g>
</g>
<g>
</g>
<g>
</g>
<g>
</g>
<g>
</g>
<g>
</g>
<g>
</g>
<g>
</g>
<g>
</g>
<g>
</g>
<g>
</g>
<g>
</g>
</svg>
