<?xml version="1.0" encoding="iso-8859-1"?>
<!-- Generator: Adobe Illustrator 19.0.0, SVG Export Plug-In . SVG Version: 6.00 Build 0)  -->
<svg version="1.1" id="Layer_1" xmlns="http://www.w3.org/2000/svg" xmlns:xlink="http://www.w3.org/1999/xlink" x="0px" y="0px"
	 viewBox="0 0 512 512" style="enable-background:new 0 0 512 512;" xml:space="preserve">
<path style="fill:#EDEEF0;" d="M66.539,75.762v222.522c0,11.327,4.411,21.976,12.42,29.985c8.009,8.009,18.658,12.42,29.985,12.42
	h0.759c11.326,0,21.976-4.411,29.985-12.42c8.009-8.009,12.42-18.658,12.42-29.985V75.763L66.539,75.762z"/>
<path style="fill:#DCDEE2;" d="M109.322,75.763V340.69h0.382c11.326,0,21.976-4.411,29.985-12.42
	c8.009-8.009,12.42-18.658,12.42-29.985V75.763H109.322z"/>
<rect x="66.539" y="93.105" style="fill:#D8D9DD;" width="85.57" height="17.37"/>
<rect x="109.323" y="93.105" style="fill:#B7B9C0;" width="42.785" height="17.37"/>
<path style="fill:#EDEEF0;" d="M152.071,98.13H66.574c-7.357,0-13.322-5.965-13.322-13.322l0,0c0-7.357,5.965-13.322,13.322-13.322
	h85.496c7.357,0,13.322,5.965,13.322,13.322l0,0C165.393,92.166,159.428,98.13,152.071,98.13z"/>
<path style="fill:#61A2EF;" d="M81.97,298.285c0,7.205,2.806,13.979,7.9,19.074c5.094,5.094,11.868,7.9,19.074,7.9h0.759
	c7.205,0,13.979-2.806,19.074-7.9c5.094-5.094,7.9-11.868,7.9-19.074V149.866H81.97V298.285z"/>
<path style="fill:#528ACF;" d="M109.322,149.866v175.393h0.382c7.205,0,13.979-2.806,19.074-7.9c5.094-5.094,7.9-11.868,7.9-19.074
	V149.866H109.322z"/>
<g>
	<circle style="fill:#FFFFFF;" cx="115.556" cy="170.005" r="12.241"/>
	<circle style="fill:#FFFFFF;" cx="96.924" cy="238.891" r="8.656"/>
</g>
<circle style="fill:#EDEEF0;" cx="121.043" cy="272.216" r="8.656"/>
<path style="fill:#DCDEE2;" d="M152.071,71.486h-42.749V98.13h42.749c7.357,0,13.322-5.965,13.322-13.322l0,0
	C165.393,77.45,159.428,71.486,152.071,71.486z"/>
<g>
	<path style="fill:#EDEEF0;" d="M115.561,157.764c-2.278,0-4.411,0.624-6.237,1.709v21.064c1.826,1.084,3.959,1.709,6.237,1.709
		c6.761,0,12.241-5.481,12.241-12.241C127.802,163.245,122.321,157.764,115.561,157.764z"/>
	<path style="fill:#EDEEF0;" d="M359.894,75.762v222.522c0,11.327,4.411,21.976,12.42,29.985c8.009,8.009,18.658,12.42,29.985,12.42
		h0.759c11.326,0,21.976-4.411,29.985-12.42c8.009-8.009,12.42-18.658,12.42-29.985V75.763L359.894,75.762z"/>
</g>
<path style="fill:#DCDEE2;" d="M402.678,75.763V340.69h0.382c11.326,0,21.976-4.411,29.985-12.42
	c8.009-8.009,12.42-18.658,12.42-29.985V75.763H402.678z"/>
<rect x="359.891" y="93.105" style="fill:#D8D9DD;" width="85.57" height="17.37"/>
<rect x="402.677" y="93.105" style="fill:#B7B9C0;" width="42.785" height="17.37"/>
<path style="fill:#EDEEF0;" d="M445.426,98.13h-85.496c-7.357,0-13.322-5.965-13.322-13.322l0,0c0-7.357,5.965-13.322,13.322-13.322
	h85.496c7.357,0,13.322,5.965,13.322,13.322l0,0C458.748,92.166,452.784,98.13,445.426,98.13z"/>
<path style="fill:#F74D37;" d="M375.325,298.285c0,7.205,2.806,13.979,7.9,19.074s11.868,7.9,19.074,7.9h0.759
	c7.205,0,13.979-2.806,19.074-7.9c5.096-5.094,7.9-11.868,7.9-19.074V149.866h-54.708L375.325,298.285L375.325,298.285z"/>
<path style="fill:#B03727;" d="M402.678,149.866v175.393h0.382c7.205,0,13.979-2.806,19.074-7.9c5.094-5.094,7.9-11.868,7.9-19.074
	V149.866H402.678z"/>
<circle style="fill:#FFFFFF;" cx="408.91" cy="170.005" r="12.241"/>
<circle style="fill:#EDEEF0;" cx="414.709" cy="238.891" r="8.656"/>
<circle style="fill:#FFFFFF;" cx="393.049" cy="291.36" r="8.656"/>
<path style="fill:#DCDEE2;" d="M445.426,71.486h-42.749V98.13h42.749c7.357,0,13.322-5.965,13.322-13.322l0,0
	C458.748,77.45,452.784,71.486,445.426,71.486z"/>
<g>
	<path style="fill:#EDEEF0;" d="M408.915,157.764c-2.278,0-4.411,0.624-6.237,1.709v21.064c1.826,1.084,3.959,1.709,6.237,1.709
		c6.761,0,12.241-5.481,12.241-12.241C421.157,163.245,415.676,157.764,408.915,157.764z"/>
	<path style="fill:#EDEEF0;" d="M213.217,75.762v222.522c0,11.327,4.411,21.976,12.42,29.985c8.009,8.009,18.658,12.42,29.985,12.42
		h0.759c11.326,0,21.976-4.411,29.985-12.42c8.009-8.009,12.42-18.658,12.42-29.985V75.763L213.217,75.762z"/>
</g>
<path style="fill:#DCDEE2;" d="M256,75.763V340.69h0.382c11.326,0,21.976-4.411,29.985-12.42c8.009-8.009,12.42-18.658,12.42-29.985
	V75.763H256z"/>
<rect x="213.215" y="93.105" style="fill:#D8D9DD;" width="85.57" height="17.37"/>
<rect x="256" y="93.105" style="fill:#B7B9C0;" width="42.785" height="17.37"/>
<path style="fill:#EDEEF0;" d="M298.749,98.13h-85.496c-7.357,0-13.322-5.965-13.322-13.322l0,0c0-7.357,5.965-13.322,13.322-13.322
	h85.496c7.357,0,13.322,5.965,13.322,13.322l0,0C312.071,92.166,306.106,98.13,298.749,98.13z"/>
<path style="fill:#F9D026;" d="M228.647,298.285c0,7.205,2.806,13.979,7.9,19.074c5.094,5.094,11.868,7.9,19.074,7.9h0.759
	c7.205,0,13.979-2.806,19.074-7.9c5.096-5.094,7.9-11.868,7.9-19.074v-61.803h-54.708L228.647,298.285L228.647,298.285z"/>
<path style="fill:#E7C224;" d="M256,236.482v88.777h0.382c7.205,0,13.979-2.806,19.074-7.9c5.094-5.094,7.9-11.868,7.9-19.074
	v-61.803L256,236.482L256,236.482z"/>
<circle style="fill:#EDEEF0;" cx="269.679" cy="253.472" r="8.656"/>
<circle style="fill:#FFFFFF;" cx="243.601" cy="291.36" r="8.656"/>
<path style="fill:#DCDEE2;" d="M298.749,71.486H256V98.13h42.749c7.357,0,13.322-5.965,13.322-13.322l0,0
	C312.071,77.45,306.106,71.486,298.749,71.486z"/>
<g>
	<path style="fill:#444242;" d="M495.221,440.511H472.96V234.928c0-10.621-8.641-19.26-19.26-19.26H58.3
		c-10.621,0-19.26,8.641-19.26,19.26v205.585H16.779V234.928c0-22.894,18.626-41.521,41.521-41.521h395.399
		c22.895,0,41.521,18.627,41.521,41.521v205.584H495.221z"/>
	<rect y="410.679" style="fill:#444242;" width="512" height="29.835"/>
</g>
<g>
</g>
<g>
</g>
<g>
</g>
<g>
</g>
<g>
</g>
<g>
</g>
<g>
</g>
<g>
</g>
<g>
</g>
<g>
</g>
<g>
</g>
<g>
</g>
<g>
</g>
<g>
</g>
<g>
</g>
</svg>
